<?xml version="1.0" encoding="UTF-8" standalone="no"?>
<!-- Created with Inkscape (http://www.inkscape.org/) -->

<svg
   width="210mm"
   height="210mm"
   viewBox="0 0 210 210"
   version="1.1"
   id="svg1"
   xmlns="http://www.w3.org/2000/svg"
   xmlns:svg="http://www.w3.org/2000/svg">
  <defs
     id="defs1" />
  <g
     id="layer1">
    <circle
       style="fill:#ffffff;fill-opacity:1;stroke:#ffffff;stroke-width:2;stroke-dasharray:none;stroke-opacity:1"
       id="path20"
       cx="104.97658"
       cy="105.36585"
       r="99.859802"
       transform="translate(0.0234235,-0.36585451)" />
    <path
       id="path1"
       style="fill:none;fill-opacity:1;stroke:#000000;stroke-width:7.02673;stroke-dasharray:none;stroke-opacity:1"
       d="M 175.12561,103.23031 A 70.125611,70.125611 0 0 1 105,173.35593 70.125611,70.125611 0 0 1 34.874388,103.23031 70.125611,70.125611 0 0 1 105,33.104698 70.125611,70.125611 0 0 1 175.12561,103.23031 Z" />
    <path
       style="fill:none;fill-opacity:1;stroke:#000000;stroke-width:7.02673;stroke-dasharray:none;stroke-opacity:1"
       d="M 34.874386,103.23031 H 175.12561"
       id="path2" />
    <path
       style="fill:none;fill-opacity:1;stroke:#000000;stroke-width:7.02673;stroke-dasharray:none;stroke-opacity:1"
       d="M 105,33.104696 V 173.35593"
       id="path2-3" />
    <path
       style="fill:none;fill-opacity:1;stroke:#000000;stroke-width:7.02673;stroke-dasharray:none;stroke-opacity:1"
       d="m 107.32868,33.105266 c 40.12811,47.930648 38.11419,94.621824 0,140.251234"
       id="path2-3-8" />
    <path
       style="fill:none;fill-opacity:1;stroke:#000000;stroke-width:7.02673;stroke-dasharray:none;stroke-opacity:1"
       d="m 27.502398,86.418327 c 23.086256,-90.9670019 129.704022,-91.3290347 154.923652,0"
       id="path2-3-8-3" />
    <path
       style="fill:none;fill-opacity:1;stroke:#000000;stroke-width:7.02673;stroke-dasharray:none;stroke-opacity:1"
       d="m 102.67133,32.997821 c -40.128115,47.930648 -38.114202,94.621829 0,140.251229"
       id="path2-3-8-2" />
    <g
       id="g3"
       transform="translate(0.0234235,-0.3658545)"
       style="fill:none;fill-opacity:1;stroke:#ff8910;stroke-opacity:1">
      <path
         style="fill:none;fill-opacity:1;stroke:#000000;stroke-width:7.02673;stroke-dasharray:none;stroke-opacity:1"
         d="m 43.337006,135.00187 c 36.269612,-16.28292 70.649224,-25.82625 123.421074,0"
         id="path3-1" />
      <path
         style="fill:none;fill-opacity:1;stroke:#000000;stroke-width:7.02673;stroke-dasharray:none;stroke-opacity:1"
         d="m 44.138965,72.190463 c 36.269609,16.282924 70.649215,25.826244 123.421065,0"
         id="path3-1-2" />
      <path
         id="path9"
         style="fill:#000000;fill-opacity:1;stroke:#000000;stroke-width:10.8525;stroke-opacity:1"
         d="M 41.504656,103.59616 A 11.663814,15.996087 0 0 1 29.840843,119.59226 11.663814,15.996087 0 0 1 18.177029,103.59616 11.663814,15.996087 0 0 1 29.840843,87.600077 11.663814,15.996087 0 0 1 41.504656,103.59616 Z" />
      <path
         id="path9-3"
         style="fill:#000000;fill-opacity:1;stroke:#000000;stroke-width:10.8525;stroke-opacity:1"
         d="m 191.77612,103.59616 a 11.663814,15.996087 0 0 1 -11.66381,15.9961 11.663814,15.996087 0 0 1 -11.66381,-15.9961 11.663814,15.996087 0 0 1 11.66381,-15.996083 11.663814,15.996087 0 0 1 11.66381,15.996083 z" />
    </g>
    <g
       id="g14"
       transform="matrix(0.87834102,0,0,0.87834102,6.4981187,13.162215)"
       style="fill:#ff8910;fill-opacity:1;stroke:#000000;stroke-opacity:1">
      <g
         id="g17"
         transform="matrix(1.1066145,0,0,1.1066145,-24.864883,-13.241494)"
         style="fill:#ff8910;fill-opacity:1;stroke:#000000;stroke-opacity:1">
        <path
           style="fill:#ff8910;fill-opacity:1;stroke:#000000;stroke-width:2.02162;stroke-dasharray:none;stroke-opacity:1"
           d="m 160.81934,187.07033 0.0138,-11.28963"
           id="path13-6" />
        <ellipse
           style="fill:#000000;fill-opacity:1;stroke:#000000;stroke-width:2;stroke-dasharray:none;stroke-opacity:1"
           id="path14-1"
           cx="158.54701"
           cy="187.43883"
           rx="2.825062"
           ry="1.9652605" />
      </g>
      <g
         id="g18"
         transform="matrix(1.1066145,0,0,1.1066145,-6.4507717,-12.801271)"
         style="fill:#ff8910;fill-opacity:1;stroke:#000000;stroke-opacity:1">
        <path
           style="fill:#ff8910;fill-opacity:1;stroke:#000000;stroke-width:2.02162;stroke-dasharray:none;stroke-opacity:1"
           d="m 63.902298,186.67252 0.0138,-11.28963"
           id="path13-6-8" />
        <ellipse
           style="fill:#000000;fill-opacity:1;stroke:#000000;stroke-width:2;stroke-dasharray:none;stroke-opacity:1"
           id="path14-1-4"
           cx="61.629974"
           cy="187.04102"
           rx="2.825062"
           ry="1.9652605" />
      </g>
      <g
         id="g15"
         transform="matrix(1.1066145,0,0,1.1066145,-18.460913,-19.889078)"
         style="fill:#ff8910;fill-opacity:1;stroke:#000000;stroke-opacity:1">
        <path
           style="fill:#000000;fill-opacity:1;stroke:#000000;stroke-width:2.02162;stroke-dasharray:none;stroke-opacity:1"
           d="m 35.47396,158.85273 -0.0138,11.28963"
           id="path13-6-0" />
        <ellipse
           style="fill:#000000;fill-opacity:1;stroke:#000000;stroke-width:2;stroke-dasharray:none;stroke-opacity:1"
           id="path14-1-6"
           cx="-37.746292"
           cy="-158.48425"
           rx="2.825062"
           ry="1.9652605"
           transform="scale(-1)" />
      </g>
      <g
         id="g19"
         transform="matrix(1.1066145,0,0,1.1066145,-17.934002,-19.889078)"
         style="fill:#ff8910;fill-opacity:1;stroke:#000000;stroke-opacity:1">
        <path
           style="fill:#ff8910;fill-opacity:1;stroke:#000000;stroke-width:2;stroke-dasharray:none;stroke-opacity:1"
           d="M 109.31762,202.42183 V 191.36724"
           id="path11" />
        <path
           style="fill:#ff8910;fill-opacity:1;stroke:#000000;stroke-width:2.11011;stroke-dasharray:none;stroke-opacity:1"
           d="m 108.57381,192.29611 12.01573,-3.08601"
           id="path12" />
        <path
           style="fill:#ff8910;fill-opacity:1;stroke:#000000;stroke-width:2.02162;stroke-dasharray:none;stroke-opacity:1"
           d="m 119.81948,201.4392 0.0138,-11.28963"
           id="path13" />
        <ellipse
           style="fill:#000000;fill-opacity:1;stroke:#000000;stroke-width:2;stroke-dasharray:none;stroke-opacity:1"
           id="path14"
           cx="117.54714"
           cy="201.80769"
           rx="2.825062"
           ry="1.9652605" />
        <ellipse
           style="fill:#000000;fill-opacity:1;stroke:#000000;stroke-width:2;stroke-dasharray:none;stroke-opacity:1"
           id="path14-8"
           cx="106.74361"
           cy="202.55573"
           rx="2.825062"
           ry="1.9652605" />
      </g>
      <g
         id="g16"
         transform="matrix(1.1066145,0,0,1.1066145,-18.460913,-14.580685)"
         style="fill:#ff8910;fill-opacity:1;stroke:#000000;stroke-opacity:1">
        <path
           style="fill:#ff8910;fill-opacity:1;stroke:#000000;stroke-width:2;stroke-dasharray:none;stroke-opacity:1"
           d="m 195.72627,153.82118 v 11.05459"
           id="path11-7" />
        <path
           style="fill:#ff8910;fill-opacity:1;stroke:#000000;stroke-width:2.11011;stroke-dasharray:none;stroke-opacity:1"
           d="m 196.47008,163.9469 -12.01573,3.08601"
           id="path12-4" />
        <path
           style="fill:#ff8910;fill-opacity:1;stroke:#000000;stroke-width:2.02162;stroke-dasharray:none;stroke-opacity:1"
           d="m 185.22441,154.80381 -0.0138,11.28963"
           id="path13-4" />
        <ellipse
           style="fill:#000000;fill-opacity:1;stroke:#000000;stroke-width:2;stroke-dasharray:none;stroke-opacity:1"
           id="path14-3"
           cx="-187.49675"
           cy="-154.43532"
           rx="2.825062"
           ry="1.9652605"
           transform="scale(-1)" />
        <ellipse
           style="fill:#000000;fill-opacity:1;stroke:#000000;stroke-width:2;stroke-dasharray:none;stroke-opacity:1"
           id="path14-8-0"
           cx="-198.30029"
           cy="-153.68729"
           rx="2.825062"
           ry="1.9652605"
           transform="scale(-1)" />
      </g>
    </g>
  </g>
</svg>
