<?xml version="1.0" encoding="UTF-8" standalone="no"?>
<!-- Created with Inkscape (http://www.inkscape.org/) -->

<svg
   width="210mm"
   height="210mm"
   viewBox="0 0 210 210"
   version="1.1"
   id="svg1"
   xmlns="http://www.w3.org/2000/svg"
   xmlns:svg="http://www.w3.org/2000/svg">
  <defs
     id="defs1" />
  <g
     id="layer1">
    <path
       id="path1"
       style="fill:none;fill-opacity:1;stroke:#ff8910;stroke-width:8;stroke-dasharray:none;stroke-opacity:1"
       d="M 184.83871,105 A 79.838707,79.838707 0 0 1 105,184.83871 79.838707,79.838707 0 0 1 25.161291,105 79.838707,79.838707 0 0 1 105,25.161292 79.838707,79.838707 0 0 1 184.83871,105 Z" />
    <path
       style="fill:none;fill-opacity:1;stroke:#ff8910;stroke-width:8;stroke-dasharray:none;stroke-opacity:1"
       d="M 25.161289,105 H 184.83871"
       id="path2" />
    <path
       style="fill:none;fill-opacity:1;stroke:#ff8910;stroke-width:8;stroke-dasharray:none;stroke-opacity:1"
       d="M 105,25.161289 V 184.83871"
       id="path2-3" />
    <path
       style="fill:none;fill-opacity:1;stroke:#ff8910;stroke-width:8;stroke-dasharray:none;stroke-opacity:1"
       d="m 107.65122,25.161938 c 45.68626,54.56952 43.3934,107.727892 0,159.677422"
       id="path2-3-8" />
    <path
       style="fill:none;fill-opacity:1;stroke:#ff8910;stroke-width:8;stroke-dasharray:none;stroke-opacity:1"
       d="m 16.768207,85.859388 c 26.283933,-103.566837 147.669323,-103.979015 176.382123,0"
       id="path2-3-8-3" />
    <path
       style="fill:none;fill-opacity:1;stroke:#ff8910;stroke-width:8;stroke-dasharray:none;stroke-opacity:1"
       d="m 102.34878,25.039611 c -45.686254,54.56952 -43.393393,107.727889 0,159.677419"
       id="path2-3-8-2" />
    <g
       id="g3"
       transform="translate(0.0234235,-0.3658545)"
       style="fill:none;fill-opacity:1;stroke:#ff8910;stroke-opacity:1">
      <path
         style="fill:none;fill-opacity:1;stroke:#ff8910;stroke-width:8;stroke-dasharray:none;stroke-opacity:1"
         d="m 34.799311,141.12156 c 41.293314,-18.53827 80.434849,-29.40344 140.516129,0"
         id="path3-1" />
      <path
         style="fill:none;fill-opacity:1;stroke:#ff8910;stroke-width:8;stroke-dasharray:none;stroke-opacity:1"
         d="m 35.712349,69.61015 c 41.293311,18.53827 80.434841,29.403436 140.516121,0"
         id="path3-1-2" />
      <path
         id="path9"
         style="fill:#ff8910;fill-opacity:1;stroke:#ff8910;stroke-width:12.3557;stroke-opacity:1"
         d="M 32.713162,105.36585 A 13.279368,18.211704 0 0 1 19.433794,123.57756 13.279368,18.211704 0 0 1 6.1544256,105.36585 13.279368,18.211704 0 0 1 19.433794,87.154148 13.279368,18.211704 0 0 1 32.713162,105.36585 Z" />
      <path
         id="path9-3"
         style="fill:#ff8910;fill-opacity:1;stroke:#ff8910;stroke-width:12.3557;stroke-opacity:1"
         d="M 203.79873,105.36585 A 13.279368,18.211704 0 0 1 190.51936,123.57756 13.279368,18.211704 0 0 1 177.24,105.36585 13.279368,18.211704 0 0 1 190.51936,87.154148 13.279368,18.211704 0 0 1 203.79873,105.36585 Z" />
    </g>
    <g
       id="g14"
       transform="translate(-7.1453743,2.4565757)"
       style="fill:#ff8910;fill-opacity:1">
      <g
         id="g17"
         transform="matrix(1.1066145,0,0,1.1066145,-24.864883,-13.241494)"
         style="fill:#ff8910;fill-opacity:1;stroke:#ff8910;stroke-opacity:1">
        <path
           style="fill:#ff8910;fill-opacity:1;stroke:#ff8910;stroke-width:2.02162;stroke-dasharray:none;stroke-opacity:1"
           d="m 160.81934,187.07033 0.0138,-11.28963"
           id="path13-6" />
        <ellipse
           style="fill:#ff8910;fill-opacity:1;stroke:#ff8910;stroke-width:2;stroke-dasharray:none;stroke-opacity:1"
           id="path14-1"
           cx="158.54701"
           cy="187.43883"
           rx="2.825062"
           ry="1.9652605" />
      </g>
      <g
         id="g18"
         transform="matrix(1.1066145,0,0,1.1066145,-6.4507717,-12.801271)"
         style="fill:#ff8910;fill-opacity:1;stroke:#ff8910;stroke-opacity:1">
        <path
           style="fill:#ff8910;fill-opacity:1;stroke:#ff8910;stroke-width:2.02162;stroke-dasharray:none;stroke-opacity:1"
           d="m 63.902298,186.67252 0.0138,-11.28963"
           id="path13-6-8" />
        <ellipse
           style="fill:#ff8910;fill-opacity:1;stroke:#ff8910;stroke-width:2;stroke-dasharray:none;stroke-opacity:1"
           id="path14-1-4"
           cx="61.629974"
           cy="187.04102"
           rx="2.825062"
           ry="1.9652605" />
      </g>
      <g
         id="g15"
         transform="matrix(1.1066145,0,0,1.1066145,-18.460913,-19.889078)"
         style="fill:#ff8910;fill-opacity:1;stroke:#ff8910;stroke-opacity:1">
        <path
           style="fill:#ff8910;fill-opacity:1;stroke:#ff8910;stroke-width:2.02162;stroke-dasharray:none;stroke-opacity:1"
           d="m 35.47396,158.85273 -0.0138,11.28963"
           id="path13-6-0" />
        <ellipse
           style="fill:#ff8910;fill-opacity:1;stroke:#ff8910;stroke-width:2;stroke-dasharray:none;stroke-opacity:1"
           id="path14-1-6"
           cx="-37.746292"
           cy="-158.48425"
           rx="2.825062"
           ry="1.9652605"
           transform="scale(-1)" />
      </g>
      <g
         id="g19"
         transform="matrix(1.1066145,0,0,1.1066145,-17.934002,-19.889078)"
         style="fill:#ff8910;fill-opacity:1;stroke:#ff8910;stroke-opacity:1">
        <path
           style="fill:#ff8910;fill-opacity:1;stroke:#ff8910;stroke-width:2;stroke-dasharray:none;stroke-opacity:1"
           d="M 109.31762,202.42183 V 191.36724"
           id="path11" />
        <path
           style="fill:#ff8910;fill-opacity:1;stroke:#ff8910;stroke-width:2.11011;stroke-dasharray:none;stroke-opacity:1"
           d="m 108.57381,192.29611 12.01573,-3.08601"
           id="path12" />
        <path
           style="fill:#ff8910;fill-opacity:1;stroke:#ff8910;stroke-width:2.02162;stroke-dasharray:none;stroke-opacity:1"
           d="m 119.81948,201.4392 0.0138,-11.28963"
           id="path13" />
        <ellipse
           style="fill:#ff8910;fill-opacity:1;stroke:#ff8910;stroke-width:2;stroke-dasharray:none;stroke-opacity:1"
           id="path14"
           cx="117.54714"
           cy="201.80769"
           rx="2.825062"
           ry="1.9652605" />
        <ellipse
           style="fill:#ff8910;fill-opacity:1;stroke:#ff8910;stroke-width:2;stroke-dasharray:none;stroke-opacity:1"
           id="path14-8"
           cx="106.74361"
           cy="202.55573"
           rx="2.825062"
           ry="1.9652605" />
      </g>
      <g
         id="g16"
         transform="matrix(1.1066145,0,0,1.1066145,-18.460913,-14.580685)"
         style="fill:#ff8910;fill-opacity:1;stroke:#ff8910;stroke-opacity:1">
        <path
           style="fill:#ff8910;fill-opacity:1;stroke:#ff8910;stroke-width:2;stroke-dasharray:none;stroke-opacity:1"
           d="m 195.72627,153.82118 v 11.05459"
           id="path11-7" />
        <path
           style="fill:#ff8910;fill-opacity:1;stroke:#ff8910;stroke-width:2.11011;stroke-dasharray:none;stroke-opacity:1"
           d="m 196.47008,163.9469 -12.01573,3.08601"
           id="path12-4" />
        <path
           style="fill:#ff8910;fill-opacity:1;stroke:#ff8910;stroke-width:2.02162;stroke-dasharray:none;stroke-opacity:1"
           d="m 185.22441,154.80381 -0.0138,11.28963"
           id="path13-4" />
        <ellipse
           style="fill:#ff8910;fill-opacity:1;stroke:#ff8910;stroke-width:2;stroke-dasharray:none;stroke-opacity:1"
           id="path14-3"
           cx="-187.49675"
           cy="-154.43532"
           rx="2.825062"
           ry="1.9652605"
           transform="scale(-1)" />
        <ellipse
           style="fill:#ff8910;fill-opacity:1;stroke:#ff8910;stroke-width:2;stroke-dasharray:none;stroke-opacity:1"
           id="path14-8-0"
           cx="-198.30029"
           cy="-153.68729"
           rx="2.825062"
           ry="1.9652605"
           transform="scale(-1)" />
      </g>
    </g>
  </g>
</svg>
